<svg width="102" height="42" viewBox="0 0 102 42" fill="none" xmlns="http://www.w3.org/2000/svg">
<path d="M101.185 39.9591C101.185 41.0653 100.292 41.9673 99.1955 41.9673H1.98998C0.893805 41.9673 0 41.0653 0 39.9591V2.00816C0 0.901971 0.893805 0 1.98998 0H99.1955C100.292 0 101.185 0.901971 101.185 2.00816V39.9591Z" fill="#3B5998"/>
<path d="M45.5672 9.93872H46.714V18.9925H45.6515V12.049L43.6784 16.6099H42.6159L40.6428 12.049V18.9925H39.5804V9.93872H40.7103L43.1387 15.5037L45.5672 9.93872Z" fill="white"/>
<path d="M53.5102 18.9925H52.549L52.4815 18.4309C52.1105 18.7373 51.183 19.1287 50.3566 19.1287C48.9232 19.1287 48.3666 18.2778 48.3666 17.0184C48.3666 15.691 49.0243 14.9932 50.4409 14.9932C51.2841 14.9932 52.0262 15.2145 52.3803 15.3676V14.3295C52.3803 13.4616 52.1105 13.0872 51.1155 13.0872C50.5253 13.0872 49.935 13.1723 49.3279 13.3424L49.1593 12.4064C49.7326 12.2192 50.5421 12.1001 51.2336 12.1001C52.7851 12.1001 53.5102 12.7808 53.5102 14.2614V18.9925ZM52.3803 16.1505C52.0093 16.0313 51.2673 15.8612 50.5927 15.8612C49.682 15.8612 49.4628 16.3036 49.4628 17.0524C49.4628 17.8863 49.7326 18.2778 50.5084 18.2778C51.3179 18.2778 51.9924 17.9714 52.3635 17.6991V16.1505H52.3803Z" fill="white"/>
<path d="M58.6201 13.2063C57.8612 13.3594 57.1023 13.6147 56.5289 13.921V19.0095H55.399V12.2532H56.3265L56.4446 13.0361C56.8493 12.6276 57.5913 12.2362 58.4683 12.1511L58.6201 13.2063Z" fill="white"/>
<path d="M59.8006 18.9926V9.39429H60.9305V15.3677L63.2578 12.2534H64.5901L62.0267 15.589L64.6913 18.9926H63.359L60.9305 15.7932V18.9926H59.8006Z" fill="white"/>
<path d="M66.4956 16.1335C66.5631 17.5631 66.9172 18.2438 68.2832 18.2438C68.9915 18.2438 69.7336 18.0736 70.2563 17.8694L70.425 18.7373C69.8685 18.9756 68.9915 19.1458 68.2664 19.1458C65.8548 19.1458 65.3657 17.478 65.3657 15.5889C65.3657 13.6488 66.0066 12.1172 68.0471 12.1172C69.8685 12.1172 70.6274 13.4106 70.6274 15.0273V16.1335H66.4956ZM66.4956 15.2316H69.5312V14.9933C69.5312 13.7339 69.1433 12.9851 68.0303 12.9851C66.7823 12.9681 66.5125 13.8871 66.4956 15.2316Z" fill="white"/>
<path d="M75.6698 18.9245C75.3831 19.0266 74.7254 19.1288 74.287 19.1288C73.1402 19.1288 72.6511 18.4821 72.6511 17.4439V13.1723H71.4875V12.2533H72.6511V10.6026L73.781 10.4324V12.2363H75.6867L75.5855 13.1553H73.781V17.3759C73.781 18.0055 73.9328 18.1927 74.5568 18.1927C74.8266 18.1927 75.2145 18.1417 75.5686 18.0566L75.6698 18.9245Z" fill="white"/>
<path d="M77.6092 9.51343C78.0477 9.51343 78.3681 9.83678 78.3681 10.2793C78.3681 10.7217 78.0646 11.0451 77.6092 11.0451C77.1708 11.0451 76.8503 10.7217 76.8503 10.2793C76.8672 9.83678 77.1708 9.51343 77.6092 9.51343ZM77.0527 12.2534H78.1826V19.0097H77.0527V12.2534Z" fill="white"/>
<path d="M84.1526 18.9925V14.0742C84.1526 13.4616 83.8996 13.1552 83.2419 13.1552C82.5336 13.1552 81.8422 13.3935 81.3531 13.5977V18.9925H80.2232V12.2362H81.1339L81.2351 12.8319C81.7747 12.4575 82.6179 12.1001 83.5286 12.1001C84.6754 12.1001 85.2993 12.7468 85.2993 13.9551V18.9925H84.1526Z" fill="white"/>
<path d="M90.3248 12.2533H92.4497V13.0362L91.5559 13.2064C91.7245 13.5127 91.8089 13.9211 91.8089 14.3466C91.8089 15.7421 90.8476 16.576 89.313 16.576C89.06 16.576 88.807 16.559 88.6047 16.5079C88.4529 16.6441 88.3011 16.8313 88.3011 17.1376C88.3011 17.461 88.4697 17.6141 88.9082 17.6141H90.426C91.6065 17.6141 92.3317 18.3629 92.3317 19.4181C92.3317 20.8646 91.0668 21.5794 89.2624 21.5794C87.5085 21.5794 86.5641 21.0348 86.5641 19.7584C86.5641 18.9416 87.1037 18.5672 87.6265 18.3119C87.3398 18.1077 87.1881 17.8013 87.1881 17.4099C87.1881 16.7972 87.6097 16.4909 87.9638 16.2867C87.2387 15.9293 86.8171 15.2486 86.8171 14.3466C86.8171 12.9 87.6434 12.1172 89.2961 12.1172C89.684 12.1172 90.0213 12.1682 90.3248 12.2533ZM88.1999 18.5501C87.8964 18.8054 87.6265 19.1288 87.6265 19.6733C87.6265 20.4562 88.2842 20.7455 89.2961 20.7455C90.4766 20.7455 91.2018 20.4392 91.2018 19.5372C91.2018 19.0266 90.9151 18.6012 90.1899 18.6012H88.7396C88.5372 18.6012 88.2842 18.5842 88.1999 18.5501ZM89.313 12.9341C88.3517 12.9341 87.8964 13.3255 87.8964 14.3466C87.8964 15.3677 88.4192 15.7591 89.313 15.7591C90.2068 15.7591 90.7464 15.3166 90.7464 14.3466C90.7464 13.3595 90.2405 12.9341 89.313 12.9341Z" fill="white"/>
<path d="M40.744 29.2375V32.6072H39.5804V23.5364H42.2618C44.3361 23.5364 45.095 24.7277 45.095 26.3784C45.095 28.0292 44.3361 29.2205 42.2618 29.2205H40.744V29.2375ZM40.744 28.2845H42.2281C43.5772 28.2845 43.9482 27.5017 43.9482 26.3955C43.9482 25.2723 43.5772 24.5064 42.2281 24.5064H40.744V28.2845Z" fill="white"/>
<path d="M50.812 32.607H49.8507L49.7833 32.0454C49.4123 32.3518 48.4847 32.7432 47.6584 32.7432C46.2249 32.7432 45.6684 31.8923 45.6684 30.6329C45.6684 29.3055 46.3261 28.6077 47.7427 28.6077C48.569 28.6077 49.3279 28.829 49.6821 28.9821V27.944C49.6821 27.0761 49.4123 26.7017 48.4173 26.7017C47.827 26.7017 47.2368 26.7868 46.6297 26.9569L46.461 26.0209C47.0344 25.8337 47.8439 25.7146 48.5353 25.7146C50.0868 25.7146 50.812 26.3953 50.812 27.8759V32.607ZM49.6821 29.765C49.3111 29.6458 48.569 29.4757 47.8945 29.4757C46.9838 29.4757 46.7646 29.9181 46.7646 30.6669C46.7646 31.5008 47.0344 31.8923 47.8102 31.8923C48.6196 31.8923 49.2942 31.5859 49.6652 31.3136V29.765H49.6821Z" fill="white"/>
<path d="M55.9218 26.821C55.1629 26.9742 54.404 27.2294 53.8306 27.5358V32.6243H52.7007V25.868H53.6283L53.7463 26.6508C54.1511 26.2424 54.8931 25.851 55.77 25.7659L55.9218 26.821Z" fill="white"/>
<path d="M60.5426 32.5393C60.2559 32.6414 59.5982 32.7435 59.1597 32.7435C58.013 32.7435 57.5239 32.0968 57.5239 31.0587V26.7871H56.3771V25.8681H57.5408V24.2173L58.6707 24.0471V25.8511H60.5763L60.4751 26.7701H58.6707V30.9906C58.6707 31.6203 58.8224 31.8075 59.4464 31.8075C59.7162 31.8075 60.1041 31.7564 60.4583 31.6713L60.5426 32.5393Z" fill="white"/>
<path d="M65.8717 32.607V27.6887C65.8717 27.0761 65.6187 26.7697 64.961 26.7697C64.2527 26.7697 63.5613 27.008 63.0722 27.2122V32.607H61.9423V25.8507H62.853L62.9542 26.4464C63.4938 26.072 64.337 25.7146 65.2477 25.7146C66.3945 25.7146 67.0184 26.3613 67.0184 27.5696V32.607H65.8717Z" fill="white"/>
<path d="M69.6493 29.7483C69.7168 31.1778 70.0709 31.8585 71.4369 31.8585C72.1452 31.8585 72.8872 31.6884 73.41 31.4841L73.5787 32.3521C73.0222 32.5903 72.1452 32.7605 71.4201 32.7605C69.0085 32.7605 68.5194 31.0927 68.5194 29.2037C68.5194 27.2636 69.1602 25.7319 71.2008 25.7319C73.0222 25.7319 73.781 27.0253 73.781 28.6421V29.7483H69.6493ZM69.6493 28.8463H72.6849V28.608C72.6849 27.3487 72.297 26.5999 71.184 26.5999C69.9191 26.5829 69.6493 27.5018 69.6493 28.8463Z" fill="white"/>
<path d="M78.5874 26.821C77.8285 26.9742 77.0696 27.2294 76.4962 27.5358V32.6243H75.3663V25.868H76.2939L76.4119 26.6508C76.8167 26.2424 77.5587 25.851 78.4356 25.7659L78.5874 26.821Z" fill="white"/>
<path d="M31.806 8.50928H9.79813C9.03924 8.50928 8.43213 9.12194 8.43213 9.88777V32.0967C8.43213 32.8626 9.03924 33.4752 9.79813 33.4752H21.6368V23.8088H18.4158V20.0477H21.6368V17.2737C21.6368 14.0573 23.5931 12.2874 26.4431 12.2874C27.8091 12.2874 28.9896 12.3895 29.3269 12.4405V15.8102H27.3538C25.8023 15.8102 25.4987 16.559 25.4987 17.6481V20.0477H29.192L28.7029 23.8088H25.4819V33.4752H31.7891C32.548 33.4752 33.1551 32.8626 33.1551 32.0967V9.88777C33.1551 9.12194 32.548 8.50928 31.806 8.50928Z" fill="white"/>
</svg>
