<svg width="22" height="22" viewBox="0 0 22 22" fill="none" xmlns="http://www.w3.org/2000/svg">
<circle cx="11" cy="11" r="11" fill="#737373"/>
<path d="M17.1332 5.88982L15.1196 16.0421C15.1196 16.0421 14.838 16.7462 14.0636 16.4082L9.41687 12.8457L7.72722 12.0291L4.88289 11.0715C4.88289 11.0715 4.44638 10.9167 4.4041 10.5787C4.36191 10.2408 4.89698 10.0578 4.89698 10.0578L16.2038 5.62224C16.2038 5.62224 17.1332 5.21392 17.1332 5.88982Z" fill="white"/>
<path d="M9.05827 15.928C9.05827 15.928 8.92264 15.9153 8.75362 15.3802C8.58469 14.8451 7.72577 12.029 7.72577 12.029L14.5549 7.69209C14.5549 7.69209 14.9492 7.4527 14.9352 7.69209C14.9352 7.69209 15.0055 7.73428 14.7943 7.93139C14.5831 8.12859 9.42951 12.7611 9.42951 12.7611" fill="#D2E5F1"/>
</svg>
