<svg width="25" height="25" viewBox="0 0 25 25" fill="none" xmlns="http://www.w3.org/2000/svg">
<path fill-rule="evenodd" clip-rule="evenodd" d="M12.5 25C19.4036 25 25 19.4036 25 12.5C25 5.59644 19.4036 0 12.5 0C5.59644 0 0 5.59644 0 12.5C0 19.4036 5.59644 25 12.5 25ZM9.29946 5.35699H15.7005C17.8744 5.35699 19.643 7.12557 19.6429 9.29933V15.7004C19.6429 17.8741 17.8744 19.6427 15.7005 19.6427H9.29946C7.1257 19.6427 5.3572 17.8742 5.3572 15.7004V9.29933C5.3572 7.12557 7.1257 5.35699 9.29946 5.35699ZM15.7006 18.3752C17.1755 18.3752 18.3755 17.1753 18.3755 15.7004H18.3754V9.29933C18.3754 7.82447 17.1754 6.62449 15.7005 6.62449H9.29946C7.8246 6.62449 6.6247 7.82447 6.6247 9.29933V15.7004C6.6247 17.1753 7.8246 18.3753 9.29946 18.3752H15.7006ZM12.4997 8.92824C10.5304 8.92824 8.92831 10.5304 8.92831 12.4998C8.92831 14.469 10.5304 16.0711 12.4997 16.0711C14.4691 16.0711 16.0712 14.469 16.0712 12.4998C16.0712 10.5304 14.4691 8.92824 12.4997 8.92824ZM12.4997 14.8412C11.2086 14.8412 10.1581 13.7908 10.1581 12.4997C10.1581 11.2084 11.2085 10.1579 12.4997 10.1579C13.791 10.1579 14.8414 11.2084 14.8414 12.4997C14.8414 13.7908 13.7909 14.8412 12.4997 14.8412ZM15.4405 8.2966C15.6062 8.1302 15.8366 8.03523 16.0712 8.03523C16.3066 8.03523 16.5371 8.1302 16.7027 8.2966C16.8691 8.46218 16.964 8.6927 16.964 8.92809C16.964 9.16267 16.8691 9.39319 16.7027 9.55958C16.5363 9.72517 16.3066 9.82095 16.0712 9.82095C15.8366 9.82095 15.6061 9.72517 15.4405 9.55958C15.2741 9.39319 15.1783 9.16275 15.1783 8.92809C15.1783 8.6927 15.274 8.46218 15.4405 8.2966Z" fill="#737373"/>
</svg>
