<svg width="23" height="22" viewBox="0 0 23 22" fill="none" xmlns="http://www.w3.org/2000/svg">
<circle cx="11.32" cy="11" r="11" fill="#737373"/>
<path d="M17.7779 7.16911L17.7739 7.15318C17.4517 5.85054 15.999 4.45273 14.6649 4.16193L14.6499 4.15883C12.4921 3.74719 10.3042 3.74719 8.14683 4.15883L8.13134 4.16193C6.79771 4.45273 5.34502 5.85054 5.02234 7.15318L5.0188 7.16911C4.62044 8.9883 4.62044 10.8332 5.0188 12.6523L5.02234 12.6683C5.33125 13.9153 6.67577 15.2489 7.96004 15.6157V17.0698C7.96004 17.5961 8.6014 17.8545 8.96612 17.4748L10.4394 15.9433C10.7589 15.9612 11.0786 15.9712 11.3983 15.9712C12.4845 15.9712 13.5712 15.8685 14.6499 15.6627L14.6649 15.6596C15.999 15.3688 17.4517 13.971 17.7739 12.6683L17.7779 12.6524C18.1762 10.8332 18.1762 8.9883 17.7779 7.16911ZM16.612 12.3885C16.3969 13.2384 15.2939 14.2949 14.4175 14.4901C13.2702 14.7083 12.1138 14.8015 10.9585 14.7695C10.9355 14.7689 10.9134 14.7778 10.8974 14.7943C10.7335 14.9626 9.82172 15.8985 9.82172 15.8985L8.67753 17.0728C8.59388 17.16 8.44693 17.1007 8.44693 16.9803V14.5715C8.44693 14.5317 8.41851 14.4979 8.37943 14.4902C8.3792 14.4902 8.37898 14.4901 8.37876 14.4901C7.50237 14.2949 6.39979 13.2383 6.18423 12.3885C5.82571 10.7441 5.82571 9.07722 6.18423 7.43287C6.39979 6.58304 7.50237 5.52649 8.37876 5.33129C10.3825 4.9502 12.4142 4.9502 14.4175 5.33129C15.2943 5.52649 16.3969 6.58304 16.612 7.43287C16.9709 9.07727 16.9709 10.7442 16.612 12.3885Z" fill="white"/>
<path d="M13.3055 13.5001C13.1707 13.4592 13.0423 13.4317 12.9231 13.3822C11.6875 12.8696 10.5503 12.2082 9.6495 11.1944C9.13725 10.6178 8.73632 9.96697 8.3974 9.27815C8.23669 8.9515 8.10124 8.61205 7.96319 8.27481C7.83731 7.96728 8.02272 7.64956 8.21796 7.41785C8.40116 7.20039 8.63691 7.03396 8.89221 6.91131C9.09148 6.81557 9.28805 6.87077 9.43358 7.03967C9.7482 7.40484 10.0372 7.78868 10.2712 8.21196C10.4151 8.47231 10.3756 8.79056 10.1148 8.96774C10.0514 9.01081 9.99368 9.06136 9.93464 9.11C9.88285 9.15263 9.83411 9.19569 9.79862 9.25341C9.73373 9.35902 9.73063 9.48358 9.77241 9.59839C10.094 10.4822 10.6361 11.1695 11.5257 11.5397C11.668 11.5989 11.811 11.6678 11.975 11.6487C12.2496 11.6166 12.3386 11.3154 12.531 11.158C12.7191 11.0042 12.9595 11.0021 13.1622 11.1304C13.3648 11.2586 13.5613 11.3963 13.7566 11.5355C13.9483 11.6721 14.1392 11.8057 14.316 11.9614C14.486 12.1112 14.5446 12.3076 14.4488 12.5108C14.2735 12.883 14.0185 13.1926 13.6506 13.3902C13.5467 13.4459 13.4226 13.464 13.3055 13.5001C13.1707 13.4591 13.4226 13.464 13.3055 13.5001Z" fill="white"/>
<path d="M11.4034 6.48602C13.0197 6.5313 14.3472 7.60392 14.6316 9.20179C14.6801 9.47405 14.6974 9.75241 14.7189 10.0287C14.728 10.145 14.6622 10.2554 14.5367 10.2569C14.4072 10.2585 14.3489 10.1501 14.3405 10.0339C14.3238 9.80389 14.3123 9.57288 14.2806 9.3448C14.1133 8.14082 13.1532 7.14474 11.9548 6.93099C11.7745 6.89882 11.5899 6.89036 11.4073 6.8712C11.2918 6.85907 11.1405 6.85207 11.1149 6.70853C11.0935 6.58818 11.1951 6.49235 11.3097 6.4862C11.3408 6.48448 11.3722 6.48589 11.4034 6.48602C13.0197 6.5313 11.3722 6.48589 11.4034 6.48602Z" fill="white"/>
<path d="M13.8584 9.6698C13.8558 9.68999 13.8543 9.73744 13.8425 9.78214C13.7996 9.94441 13.5536 9.96472 13.497 9.80095C13.4802 9.75235 13.4777 9.69707 13.4776 9.64475C13.477 9.30242 13.4026 8.96045 13.23 8.66261C13.0525 8.35649 12.7814 8.09915 12.4634 7.94344C12.2712 7.84929 12.0632 7.79077 11.8525 7.7559C11.7604 7.74067 11.6673 7.73142 11.5747 7.71854C11.4626 7.70296 11.4027 7.63147 11.408 7.52095C11.413 7.41738 11.4887 7.34288 11.6015 7.34926C11.9724 7.37033 12.3307 7.45049 12.6605 7.6251C13.331 7.98022 13.7141 8.54076 13.8259 9.28923C13.8309 9.32314 13.8391 9.35673 13.8416 9.39077C13.848 9.47483 13.852 9.55897 13.8584 9.6698C13.8558 9.68999 13.852 9.55897 13.8584 9.6698Z" fill="white"/>
<path d="M12.8517 9.63098C12.7164 9.63342 12.6441 9.55857 12.6301 9.43459C12.6204 9.34815 12.6128 9.26055 12.5921 9.17645C12.5515 9.01082 12.4635 8.85732 12.3241 8.75583C12.2584 8.70789 12.1838 8.67297 12.1057 8.65044C12.0066 8.6218 11.9036 8.62968 11.8046 8.60543C11.6971 8.57909 11.6377 8.49207 11.6546 8.39124C11.6699 8.29948 11.7592 8.22787 11.8595 8.23513C12.4861 8.28036 12.9339 8.60432 12.9979 9.342C13.0024 9.39405 13.0077 9.44907 12.9961 9.49886C12.9763 9.58411 12.9132 9.62682 12.8517 9.63098C12.7164 9.63342 12.9132 9.62682 12.8517 9.63098Z" fill="white"/>
</svg>
