<svg width="25" height="25" viewBox="0 0 25 25" fill="none" xmlns="http://www.w3.org/2000/svg">
<path fill-rule="evenodd" clip-rule="evenodd" d="M12.5 25C19.4036 25 25 19.4036 25 12.5C25 5.59644 19.4036 0 12.5 0C5.59644 0 0 5.59644 0 12.5C0 19.4036 5.59644 25 12.5 25ZM17.9805 7.23542C18.9438 7.28966 19.4169 7.43229 19.8528 8.20774C20.3068 8.98218 20.5358 10.3161 20.5358 12.6656V12.6686V12.6736C20.5358 15.012 20.3068 16.356 19.8538 17.1224C19.4179 17.8978 18.9448 18.0384 17.9815 18.1037C17.0182 18.159 14.5984 18.1921 12.5021 18.1921C10.4018 18.1921 7.98104 18.159 7.01876 18.1027C6.05749 18.0374 5.58438 17.8968 5.14443 17.1214C4.69543 16.3549 4.46441 15.011 4.46441 12.6726V12.6706V12.6676V12.6645C4.46441 10.3161 4.69543 8.98218 5.14443 8.20774C5.58438 7.43129 6.05849 7.28966 7.01976 7.23441C7.98104 7.17013 10.4018 7.14301 12.5021 7.14301C14.5984 7.14301 17.0182 7.17013 17.9805 7.23542ZM15.5135 12.6676L10.4912 9.65417V15.681L15.5135 12.6676Z" fill="#737373"/>
</svg>
