<svg width="40" height="39" viewBox="0 0 40 39" fill="none" xmlns="http://www.w3.org/2000/svg">
<circle cx="19.7209" cy="19.5" r="19.5" fill="#4061F9"/>
<path d="M27.7766 22.8149C26.6746 22.8149 25.5925 22.6426 24.5672 22.3037C24.0647 22.1323 23.447 22.2896 23.1404 22.6045L21.1164 24.1324C18.7693 22.8794 17.3235 21.4341 16.0877 19.1045L17.5705 17.1334C17.9558 16.7486 18.094 16.1866 17.9284 15.6592C17.5881 14.6285 17.4152 13.5469 17.4152 12.4444C17.4153 11.648 16.7673 11 15.9709 11H12.6653C11.8689 11 11.2209 11.648 11.2209 12.4444C11.2209 21.5733 18.6477 29 27.7766 29C28.573 29 29.221 28.352 29.221 27.5556V24.2593C29.2209 23.4629 28.573 22.8149 27.7766 22.8149Z" fill="white"/>
</svg>
