<svg width="30" height="30" viewBox="0 0 30 30" fill="none" xmlns="http://www.w3.org/2000/svg">
<circle cx="15" cy="15" r="15" fill="#40B3E0"/>
<path d="M23.3634 8.03157L20.6176 21.8756C20.6176 21.8756 20.2337 22.8357 19.1776 22.3748L12.8411 17.5169L10.5371 16.4033L6.65844 15.0975C6.65844 15.0975 6.0632 14.8864 6.00555 14.4255C5.94802 13.9647 6.67765 13.7151 6.67765 13.7151L22.0961 7.66669C22.0961 7.66669 23.3634 7.10989 23.3634 8.03157Z" fill="white"/>
<path d="M12.3522 21.7201C12.3522 21.7201 12.1672 21.7028 11.9368 20.9731C11.7064 20.2434 10.5352 16.4032 10.5352 16.4032L19.8476 10.4893C19.8476 10.4893 20.3854 10.1629 20.3661 10.4893C20.3661 10.4893 20.4621 10.5469 20.1741 10.8156C19.8861 11.0846 12.8584 17.4017 12.8584 17.4017" fill="#D2E5F1"/>
</svg>
