<svg width="31" height="30" viewBox="0 0 31 30" fill="none" xmlns="http://www.w3.org/2000/svg">
<circle cx="15.8" cy="15" r="15" fill="#7D3DAF"/>
<path d="M24.6062 9.77593L24.6008 9.7542C24.1614 7.97787 22.1804 6.07177 20.3612 5.67522L20.3407 5.671C17.3983 5.10967 14.4148 5.10967 11.473 5.671L11.4518 5.67522C9.63325 6.07177 7.6523 7.97787 7.21229 9.7542L7.20746 9.77593C6.66424 12.2566 6.66424 14.7724 7.20746 17.2531L7.21229 17.2748C7.63353 18.9753 9.46696 20.7938 11.2182 21.294V23.2768C11.2182 23.9945 12.0928 24.347 12.5902 23.8291L14.5992 21.7408C15.0349 21.7652 15.4709 21.7787 15.9068 21.7787C17.388 21.7787 18.8698 21.6387 20.3407 21.3581L20.3612 21.3538C22.1804 20.9573 24.1614 19.0512 24.6008 17.2748L24.6062 17.2531C25.1494 14.7724 25.1494 12.2566 24.6062 9.77593ZM23.0164 16.8933C22.723 18.0522 21.2189 19.4929 20.0238 19.7591C18.4593 20.0566 16.8824 20.1838 15.3071 20.1402C15.2757 20.1393 15.2456 20.1514 15.2238 20.1739C15.0002 20.4034 13.7569 21.6797 13.7569 21.6797L12.1966 23.281C12.0826 23.3999 11.8822 23.319 11.8822 23.1548V19.8701C11.8822 19.8158 11.8434 19.7697 11.7901 19.7592C11.7898 19.7592 11.7895 19.7591 11.7892 19.7591C10.5941 19.4929 9.09063 18.0521 8.79669 16.8933C8.30779 14.651 8.30779 12.3779 8.79669 10.1356C9.09063 8.97673 10.5941 7.53599 11.7892 7.26981C14.5216 6.75013 17.292 6.75013 20.0238 7.26981C21.2195 7.53599 22.723 8.97673 23.0164 10.1356C23.5058 12.378 23.5058 14.651 23.0164 16.8933Z" fill="white"/>
<path d="M18.5075 18.4094C18.3237 18.3536 18.1486 18.3161 17.986 18.2486C16.3011 17.5496 14.7504 16.6477 13.522 15.2652C12.8235 14.479 12.2768 13.5915 11.8146 12.6522C11.5955 12.2067 11.4108 11.7439 11.2225 11.284C11.0509 10.8646 11.3037 10.4314 11.5699 10.1154C11.8198 9.81887 12.1412 9.59192 12.4894 9.42467C12.7611 9.29412 13.0292 9.36938 13.2276 9.59971C13.6566 10.0977 14.0507 10.6211 14.3698 11.1983C14.5661 11.5533 14.5122 11.9873 14.1566 12.2289C14.0702 12.2876 13.9914 12.3566 13.9109 12.4229C13.8402 12.481 13.7738 12.5397 13.7254 12.6184C13.6369 12.7625 13.6327 12.9323 13.6897 13.0889C14.1282 14.2941 14.8674 15.2313 16.0805 15.736C16.2746 15.8168 16.4696 15.9108 16.6932 15.8848C17.0677 15.841 17.189 15.4302 17.4514 15.2156C17.7079 15.0058 18.0357 15.0031 18.312 15.1779C18.5884 15.3528 18.8563 15.5406 19.1226 15.7304C19.3841 15.9166 19.6443 16.0989 19.8854 16.3112C20.1173 16.5154 20.1971 16.7833 20.0666 17.0604C19.8276 17.5678 19.4798 17.99 18.9781 18.2595C18.8364 18.3355 18.6672 18.3602 18.5075 18.4094C18.3237 18.3535 18.6672 18.3602 18.5075 18.4094Z" fill="white"/>
<path d="M15.9138 8.84442C18.1178 8.90617 19.928 10.3688 20.3159 12.5477C20.382 12.919 20.4055 13.2986 20.4349 13.6754C20.4473 13.8339 20.3576 13.9845 20.1865 13.9865C20.0098 13.9887 19.9303 13.8408 19.9189 13.6824C19.8962 13.3688 19.8804 13.0538 19.8372 12.7428C19.6091 11.101 18.2999 9.74267 16.6657 9.4512C16.4198 9.40732 16.1681 9.39579 15.919 9.36966C15.7615 9.35312 15.5553 9.34358 15.5204 9.14784C15.4911 8.98373 15.6297 8.85305 15.7859 8.84466C15.8284 8.84231 15.8712 8.84424 15.9138 8.84442C18.1178 8.90617 15.8712 8.84424 15.9138 8.84442Z" fill="white"/>
<path d="M19.2615 13.1861C19.2578 13.2137 19.2559 13.2784 19.2398 13.3393C19.1813 13.5606 18.8458 13.5883 18.7686 13.365C18.7457 13.2987 18.7423 13.2233 18.7421 13.152C18.7414 12.6852 18.6399 12.2188 18.4045 11.8127C18.1625 11.3953 17.7928 11.0443 17.3592 10.832C17.097 10.7036 16.8135 10.6238 16.5261 10.5763C16.4005 10.5555 16.2736 10.5429 16.1474 10.5253C15.9944 10.5041 15.9128 10.4066 15.92 10.2559C15.9268 10.1146 16.03 10.0131 16.1839 10.0218C16.6897 10.0505 17.1782 10.1598 17.6279 10.3979C18.5423 10.8822 19.0646 11.6465 19.2171 12.6672C19.224 12.7134 19.2351 12.7592 19.2386 12.8056C19.2472 12.9203 19.2527 13.035 19.2615 13.1861C19.2578 13.2137 19.2527 13.035 19.2615 13.1861Z" fill="white"/>
<path d="M17.8886 13.1331C17.7042 13.1365 17.6056 13.0344 17.5865 12.8653C17.5733 12.7475 17.5629 12.628 17.5348 12.5133C17.4794 12.2875 17.3593 12.0781 17.1693 11.9397C17.0796 11.8744 16.978 11.8268 16.8715 11.796C16.7362 11.757 16.5958 11.7677 16.4608 11.7346C16.3143 11.6987 16.2332 11.5801 16.2563 11.4426C16.2772 11.3175 16.3989 11.2198 16.5357 11.2297C17.3901 11.2914 18.0008 11.7331 18.088 12.7391C18.0942 12.81 18.1014 12.8851 18.0856 12.953C18.0587 13.0692 17.9726 13.1275 17.8886 13.1331C17.7042 13.1365 17.9726 13.1275 17.8886 13.1331Z" fill="white"/>
</svg>
